<svg width="181" height="54" viewBox="0 0 181 54" fill="none" xmlns="http://www.w3.org/2000/svg">
<path d="M174.315 0.5H7.18519C3.49306 0.5 0.5 3.46611 0.5 7.125V46.875C0.5 50.5339 3.49306 53.5 7.18519 53.5H174.315C178.007 53.5 181 50.5339 181 46.875V7.125C181 3.46611 178.007 0.5 174.315 0.5Z" fill="black"/>
<path d="M63.9023 14.068C63.9424 15.0485 63.5814 16.0025 62.8995 16.718C62.1374 17.513 61.0677 17.937 59.958 17.9105C58.26 17.884 56.7491 16.8505 56.0806 15.3135C55.4522 13.7632 55.8132 11.9745 57.0165 10.782C57.7786 9.98698 58.8483 9.56298 59.958 9.58948C60.5196 9.58948 61.0811 9.69548 61.6026 9.92073C62.0839 10.1327 62.5117 10.4507 62.8594 10.8217L62.1507 11.524C61.6159 10.9012 60.8137 10.5567 59.9714 10.5965C59.129 10.5965 58.3134 10.9277 57.7251 11.524C57.1235 12.1335 56.816 12.9417 56.8427 13.7765C56.8427 15.0352 57.5781 16.188 58.7413 16.6915C59.9179 17.195 61.2817 16.9565 62.1909 16.0687C62.592 15.6315 62.8594 15.0485 62.8594 14.4522H59.958V13.5247H63.8354C63.8889 13.7102 63.9023 13.9222 63.9023 14.1077V14.068ZM70.0259 10.7555H66.4159V13.273H69.705V14.227H66.4159V16.7445H70.0259V17.725H65.3463V9.77498H70.0259V10.7555ZM74.4114 17.725H73.3819V10.7555H71.149V9.77498H76.7111V10.7555H74.4114V17.725ZM80.642 17.725V9.77498H81.6715V17.725H80.642ZM86.2441 17.725H85.2146V10.7555H82.9684V9.77498H88.477V10.7555H86.2441V17.725ZM98.9059 16.6915C97.3014 18.2815 94.6675 18.2815 93.0229 16.6915C92.2691 15.8915 91.8499 14.8379 91.8499 13.7434C91.8499 12.6489 92.2691 11.5952 93.0229 10.7952C93.8251 10.0002 94.868 9.57623 95.9644 9.57623C97.0875 9.57623 98.1438 10.0135 98.9059 10.7952C99.6778 11.586 100.109 12.6431 100.109 13.7434C100.109 14.8436 99.6778 15.9007 98.9059 16.6915ZM93.7984 16.029C95.0017 17.2215 96.9538 17.2215 98.1572 16.029C99.3605 14.7305 99.3605 12.7695 98.1572 11.471C96.9538 10.2785 95.0017 10.2785 93.7984 11.471C92.5951 12.7695 92.5951 14.7305 93.7984 16.029ZM101.553 17.725V9.77498H102.81L106.714 15.9627V9.77498H107.744V17.725H106.674L102.609 11.2325V17.725H101.553Z" fill="white" stroke="white" stroke-width="0.2"/>
<path d="M91.6055 29.3188C88.4769 29.3188 85.9365 31.8628 85.9499 34.9633C85.9569 36.4592 86.5615 37.8915 87.6315 38.9468C88.7014 40.0021 90.1495 40.5945 91.659 40.5945C94.7877 40.5945 97.328 38.077 97.328 34.9633C97.3682 33.4528 96.7665 32.0085 95.6969 30.9485C94.6272 29.8885 93.1565 29.3055 91.6323 29.332L91.6055 29.3188ZM91.6055 38.3685C90.1883 38.4613 88.8646 37.706 88.2629 36.434C87.6479 35.162 87.8618 33.6515 88.8379 32.6313C89.8005 31.5978 91.298 31.2665 92.6217 31.77C93.9587 32.3 94.8144 33.5455 94.8144 34.95C94.8545 35.8245 94.547 36.6725 93.932 37.335C93.3303 37.971 92.488 38.342 91.6055 38.3685ZM79.1711 29.3188C76.0157 29.3188 73.4887 31.8363 73.4887 34.9633C73.4887 36.455 74.0867 37.8857 75.1511 38.9405C76.2155 39.9953 77.6591 40.5879 79.1644 40.5879C80.6697 40.5879 82.1133 39.9953 83.1777 38.9405C84.2421 37.8857 84.8401 36.455 84.8401 34.9633C84.8401 33.4528 84.2518 32.0085 83.1822 30.9485C82.1126 29.8885 80.6418 29.3055 79.1176 29.332L79.1711 29.3188ZM79.1711 38.3685C77.7405 38.4745 76.4168 37.706 75.8017 36.4473C75.1867 35.1753 75.4006 33.6648 76.3767 32.6313C76.8494 32.131 77.4619 31.7818 78.136 31.6284C78.81 31.475 79.5149 31.5243 80.1605 31.77C81.4975 32.3 82.3532 33.5455 82.3532 34.95C82.3933 35.8245 82.0858 36.6725 81.4708 37.335C80.8691 37.971 80.0268 38.342 79.1443 38.3685H79.1711ZM64.33 31.0545V33.4395H70.106C70.0124 34.5658 69.5444 35.6258 68.7689 36.4473C67.6057 37.6398 65.9879 38.2625 64.3166 38.1963C62.6372 38.1623 61.0381 37.4773 59.8625 36.2883C58.6869 35.0992 58.0285 33.5009 58.0285 31.8363C58.0285 30.1716 58.6869 28.5733 59.8625 27.3843C61.0381 26.1952 62.6372 25.5103 64.3166 25.4763C65.9478 25.4498 67.5255 26.0593 68.6887 27.1988L70.3867 25.5028C69.5927 24.7133 68.6485 24.0879 67.6089 23.6625C66.5692 23.2372 65.4547 23.0205 64.33 23.025C61.0943 22.8925 58.0459 24.5355 56.388 27.3048C55.5742 28.657 55.1445 30.2022 55.1445 31.7767C55.1445 33.3511 55.5742 34.8963 56.388 36.2485C57.1985 37.6061 58.3648 38.7208 59.7631 39.4743C61.1614 40.2279 62.7396 40.5921 64.33 40.5283C66.643 40.6608 68.8759 39.7333 70.4803 38.0903C71.8943 36.5722 72.6483 34.5635 72.5795 32.4988C72.5795 31.9953 72.5528 31.4918 72.4458 31.0015L64.3433 31.081L64.33 31.0545ZM124.898 32.9095C124.556 31.8921 123.908 31.0032 123.04 30.3633C122.171 29.7234 121.126 29.3634 120.044 29.332C118.574 29.332 117.17 29.915 116.167 30.9883C115.137 32.0483 114.616 33.5058 114.696 34.9633C114.696 36.4605 115.258 37.9048 116.327 38.9648C117.397 40.0248 118.841 40.621 120.338 40.5945C122.25 40.5945 124.029 39.667 125.085 38.1035L123.146 36.7785C122.558 37.7458 121.502 38.342 120.338 38.342C119.162 38.3818 118.065 37.706 117.598 36.6195L125.219 33.519L124.924 32.936L124.898 32.9095ZM117.143 34.791C117.103 33.9695 117.384 33.148 117.945 32.5385C118.507 31.9158 119.282 31.5448 120.125 31.505C121.007 31.452 121.836 31.9025 122.237 32.6975L117.156 34.791H117.143ZM111.006 40.25H113.493V23.6875H110.993V40.25H111.006ZM106.901 30.5775H106.808C106.046 29.7295 104.963 29.2525 103.813 29.2525C100.778 29.385 98.3977 31.876 98.3977 34.8838C98.3977 37.9048 100.804 40.3825 103.826 40.5283C104.976 40.5548 106.072 40.0778 106.821 39.2033H106.901V40.0248C106.901 42.1845 105.738 43.3373 103.866 43.3373C103.243 43.323 102.638 43.1268 102.126 42.7733C101.615 42.4197 101.22 41.9246 100.992 41.3498L98.8122 42.2375C99.2289 43.2208 99.9299 44.06 100.827 44.6494C101.724 45.2389 102.777 45.5522 103.853 45.55C106.768 45.55 109.201 43.8275 109.201 39.6803V29.65H106.888V30.5775H106.901ZM104.04 38.3685C102.248 38.2095 100.885 36.7255 100.885 34.95C100.885 33.1745 102.248 31.6905 104.04 31.5315C104.909 31.5713 105.711 31.9688 106.286 32.5915C106.874 33.254 107.155 34.0888 107.088 34.95C107.169 35.8113 106.874 36.6725 106.286 37.3085C105.725 37.971 104.909 38.342 104.04 38.3685ZM136.61 23.6875H130.647V40.25H133.147V33.9695H136.65C138.589 34.102 140.447 33.1745 141.464 31.505C142.48 29.862 142.48 27.795 141.464 26.152C140.967 25.343 140.255 24.6852 139.406 24.2505C138.557 23.8157 137.604 23.621 136.65 23.6875H136.61ZM136.61 31.6375H133.134V25.993H136.677C138.255 25.993 139.552 27.265 139.552 28.8418C139.552 30.392 138.255 31.664 136.677 31.664L136.624 31.6243L136.61 31.6375ZM152.04 29.2525C150.168 29.1465 148.43 30.1403 147.587 31.77L149.82 32.6975C150.261 31.876 151.157 31.399 152.093 31.4785C152.735 31.399 153.377 31.5845 153.885 32.0085C154.393 32.406 154.714 32.9758 154.781 33.5985V33.784C153.978 33.36 153.082 33.148 152.173 33.148C149.767 33.148 147.36 34.473 147.36 36.858C147.413 37.918 147.895 38.872 148.657 39.561C149.419 40.25 150.449 40.5945 151.491 40.515C152.775 40.6078 154.005 39.985 154.7 38.925H154.781V40.25H157.187V33.89C157.187 30.975 154.968 29.2923 152.106 29.2923L152.053 29.2525H152.04ZM151.732 38.3288C150.93 38.3288 149.793 37.9313 149.793 36.9243C149.793 35.5993 151.211 35.1488 152.467 35.1488C153.27 35.1488 154.045 35.321 154.74 35.7053C154.656 36.4246 154.311 37.0893 153.771 37.5765C153.23 38.0636 152.53 38.3403 151.799 38.3553L151.745 38.3155L151.732 38.3288ZM165.958 29.65L163.097 36.8315H163.017L160.035 29.65H157.361L161.813 39.6935L159.273 45.2585H161.88L168.726 29.65H165.945H165.958ZM143.496 40.25H145.983V23.6875H143.483V40.25H143.496Z" fill="white"/>
<path d="M14.4587 10.5038C14.0175 11.0338 13.7902 11.736 13.8704 12.425V41.575C13.8303 42.2375 14.0442 42.9 14.4854 43.43L14.579 43.5228L31.1182 27.1987V26.8013L14.5389 10.4375L14.4587 10.5303V10.5038Z" fill="url(#paint0_linear_243_230)"/>
<path d="M36.6001 32.6577L31.0781 27.1855V26.788L36.6001 21.3555L36.7338 21.4085L43.2853 25.092C45.1571 26.152 45.1571 27.8745 43.2853 28.9345L36.7338 32.6047L36.6001 32.6577Z" fill="url(#paint1_linear_243_230)"/>
<path d="M36.7337 32.5915L31.1182 27L14.4453 43.4963C15.2475 44.1853 16.3974 44.2117 17.2263 43.5757L36.7471 32.6047" fill="url(#paint2_linear_243_230)"/>
<path d="M36.7337 21.4085L17.213 10.411C16.8123 10.1062 16.3172 9.94886 15.8124 9.96577C15.3075 9.98269 14.8243 10.1729 14.4453 10.5038L31.1182 27L36.7337 21.4085Z" fill="#00F076"/>
<defs>
<linearGradient id="paint0_linear_243_230" x1="877.039" y1="10.4375" x2="877.039" y2="3318.96" gradientUnits="userSpaceOnUse">
<stop offset="0.03938" stop-color="#00C3FF"/>
<stop offset="0.97744" stop-color="#00E1FF"/>
</linearGradient>
<linearGradient id="paint1_linear_243_230" x1="1130.13" y1="586.468" x2="-2102.83" y2="586.468" gradientUnits="userSpaceOnUse">
<stop stop-color="#FDDE31"/>
<stop offset="0.4" stop-color="#FABC31"/>
<stop offset="0.77" stop-color="#F8A431"/>
<stop offset="1" stop-color="#F79B31"/>
</linearGradient>
<linearGradient id="paint2_linear_243_230" x1="1935.77" y1="330.421" x2="-162.763" y2="3896.87" gradientUnits="userSpaceOnUse">
<stop stop-color="#FF3A44"/>
<stop offset="1" stop-color="#C4206D"/>
</linearGradient>
</defs>
</svg>
